<?xml version="1.0" encoding="utf-8"?>
<!-- Generator: Adobe Illustrator 22.1.0, SVG Export Plug-In . SVG Version: 6.00 Build 0)  -->
<svg version="1.1" id="Calque_1" xmlns="http://www.w3.org/2000/svg" xmlns:xlink="http://www.w3.org/1999/xlink" x="0px" y="0px"
	 viewBox="0 0 8503.9 1984.3" style="enable-background:new 0 0 8503.9 1984.3;" xml:space="preserve">
<style type="text/css">
	.st0{fill:#f9f9f9;}
</style>
<g>
	<g>
		<path class="st0" d="M619.1,500.9c-147.6,0-228.8,86.7-228.8,244.1v551.5c0,157.4,81.3,244.1,228.8,244.1
			c147.6,0,228.8-86.7,228.8-244.1v-137.1H712.1v148.8c0,84.3-48.2,102-88.6,102s-88.6-17.7-88.6-102V734.8
			c0-66.7,31.5-103.5,88.6-103.5s88.6,36.7,88.6,103.5v110.7h135.9V745C847.9,587.6,766.7,500.9,619.1,500.9z"/>
		<path class="st0" d="M1480.7,500.9c-152.3,0-236.1,88.8-236.1,250v539.7c0,161.2,83.9,250,236.1,250c152.3,0,236.2-88.8,236.2-250
			V750.9C1716.8,589.7,1633,500.9,1480.7,500.9z M1572.2,1300.9c0,72.6-30.8,109.3-91.5,109.3c-60.7,0-91.5-36.8-91.5-109.3V740.6
			c0-72.6,30.8-109.3,91.5-109.3c60.7,0,91.5,36.8,91.5,109.3V1300.9z"/>
		<path class="st0" d="M2550.2,1463.3l-2.5-4.4l2.9-4.2c29.1-42.4,43.9-97.6,43.9-164.1V750.9c0-161.2-83.9-250-236.2-250
			c-152.3,0-236.1,88.8-236.1,250v539.7c0,161.2,83.9,250,236.1,250c38.7,0,74.7-5.9,103.9-17.1l8.6-3.3l2.2,8.9
			c15.5,62,56.9,92.1,126.7,92.1h34.3v-130.4h-16.7C2589.2,1490.9,2564.8,1488.8,2550.2,1463.3z M2449.9,1300.9
			c0,72.6-30.8,109.3-91.5,109.3c-60.7,0-91.5-36.8-91.5-109.3V740.6c0-72.6,30.8-109.3,91.5-109.3c60.7,0,91.5,36.8,91.5,109.3
			V1300.9z"/>
		<path class="st0" d="M3240.4,1410.2c-60.6,0-90.1-35.3-90.1-107.9V515.6h-144.6v775c0,163.5,80.1,250,231.8,250
			s231.8-86.4,231.8-250v-775h-138.8v786.8C3330.5,1374.9,3301,1410.2,3240.4,1410.2z"/>
		<polygon class="st0" points="4036.8,645.9 4314.7,645.9 4314.7,515.6 3892.2,515.6 3892.2,1525.9 4314.7,1525.9 4314.7,1395.5 
			4036.8,1395.5 4036.8,1063.9 4257.7,1063.9 4257.7,933.6 4036.8,933.6 		"/>
	</g>
</g>
<g>
	<path class="st0" d="M5692.4,992.8v-2.9c70.6-28.9,102.3-93.9,102.3-197.8v-40.4c0-156-70.6-232.5-234.8-232.5h-239.1V1530h249.2
		c158.4,0,240.5-83.8,240.5-239.7v-86.6C5810.5,1096.7,5777.3,1021.6,5692.4,992.8z M5479.2,663.5h76.3c56.2,0,80.7,31.8,80.7,104
		v56.3c0,80.9-36,106.9-95.1,106.9h-61.9V663.5z M5652,1285.9c0,75.1-28.8,99.6-82.1,99.6h-90.7v-310.5h70.6
		c72,0,102.3,28.9,102.3,122.7V1285.9z"/>
	<path class="st0" d="M6419.7,504.7c-155.6,0-240.5,92.4-240.5,254.2v531.4c0,161.7,85,254.2,240.5,254.2
		c155.6,0,240.5-92.4,240.5-254.2V758.8C6660.3,597.1,6575.3,504.7,6419.7,504.7z M6501.8,1300.3c0,72.2-31.7,99.6-82.1,99.6
		s-82.1-27.4-82.1-99.6V748.7c0-72.2,31.7-99.6,82.1-99.6s82.1,27.4,82.1,99.6V1300.3z"/>
	<rect x="7054.9" y="519.1" class="st0" width="158.4" height="1010.9"/>
	<path class="st0" d="M7890.3,963.9c-103.7-91-136.8-144.4-136.8-218.1c0-69.3,28.8-96.8,79.2-96.8c50.4,0,79.2,27.4,79.2,99.6v52
		h149.8v-41.9c0-161.7-76.3-254.2-230.5-254.2c-154.1,0-236.2,92.4-236.2,251.3c0,115.5,43.2,197.8,175.7,314.8
		c103.7,91,135.4,144.4,135.4,228.2c0,75.1-31.7,101.1-82.1,101.1c-50.4,0-82.1-26-82.1-98.2v-69.3h-149.8v57.8
		c0,161.7,77.8,254.2,233.3,254.2c155.6,0,239.1-92.4,239.1-257C8064.6,1161.7,8022.8,1080.8,7890.3,963.9z"/>
</g>
<g>
	<g>
		<polygon class="st0" points="4790.5,723.5 4870.8,723.5 4870.8,674.2 4790.5,674.2 4790.5,571.5 4891.6,571.5 4891.6,522.2 
			4736,522.2 4736,891.6 4891.6,891.6 4891.6,842.3 4790.5,842.3 		"/>
		<polygon class="st0" points="4853.8,1388.1 4849.2,1388.1 4792.3,1164.6 4722.4,1164.6 4722.4,1534 4770.5,1534 4770.5,1261.4 
			4775.2,1261.4 4845.4,1534 4902,1534 4902,1164.6 4853.8,1164.6 		"/>
	</g>
</g>
</svg>
