{
	"asset":{
		"generator":"Khronos glTF Blender I/O v3.6.27",
		"version":"2.0"
	},
	"extensionsUsed":[
		"KHR_materials_clearcoat",
		"KHR_materials_specular",
		"KHR_materials_ior"
	],
	"scene":0,
	"scenes":[
		{
			"name":"Scene",
			"nodes":[
				0,
				1,
				2,
				3,
				4,
				5,
				6,
				7,
				8
			]
		}
	],
	"nodes":[
		{
			"mesh":0,
			"name":"body",
			"rotation":[
				0.7071068286895752,
				0,
				0,
				0.7071068286895752
			],
			"translation":[
				0,
				1.830702304840088,
				0
			]
		},
		{
			"mesh":1,
			"name":"wing_2",
			"rotation":[
				0,
				0,
				-0.2546762228012085,
				0.9670264720916748
			],
			"scale":[
				1,
				1,
				0.5089594125747681
			],
			"translation":[
				0.6622483730316162,
				1.7958471775054932,
				0
			]
		},
		{
			"mesh":2,
			"name":"wing_1",
			"rotation":[
				0.7071068286895752,
				0,
				0,
				0.7071068286895752
			],
			"scale":[
				1,
				1.1174646615982056,
				1
			],
			"translation":[
				0.1666124016046524,
				0.8566606640815735,
				0
			]
		},
		{
			"mesh":3,
			"name":"wing_3",
			"rotation":[
				0,
				0,
				-0.7071068286895752,
				0.7071068286895752
			],
			"translation":[
				0,
				1.0192737579345703,
				0.2927834987640381
			]
		},
		{
			"mesh":4,
			"name":"glass",
			"rotation":[
				-0.09042079746723175,
				0,
				0,
				0.995903730392456
			],
			"scale":[
				0.7653552889823914,
				0.7653554677963257,
				0.7542445659637451
			],
			"translation":[
				0,
				2.211698055267334,
				0.4769234359264374
			]
		},
		{
			"mesh":5,
			"name":"line",
			"rotation":[
				0.7071068286895752,
				0,
				0,
				0.7071068286895752
			],
			"scale":[
				1,
				1.1174646615982056,
				1
			],
			"translation":[
				0.1666124016046524,
				0.8566606640815735,
				0
			]
		},
		{
			"mesh":6,
			"name":"arrow",
			"translation":[
				0,
				3.550906181335449,
				0
			]
		},
		{
			"mesh":7,
			"name":"wing_down",
			"rotation":[
				0.7071068286895752,
				0,
				0,
				0.7071068286895752
			],
			"scale":[
				1,
				1.1174646615982056,
				1
			],
			"translation":[
				0.1666124016046524,
				0.8566606640815735,
				0
			]
		},
		{
			"mesh":8,
			"name":"vida",
			"translation":[
				0,
				2.2968554496765137,
				0.6540237665176392
			]
		}
	],
	"materials":[
		{
			"doubleSided":true,
			"name":"metalic_white",
			"pbrMetallicRoughness":{
				"metallicFactor":0,
				"roughnessFactor":0.44999998807907104
			}
		},
		{
			"doubleSided":true,
			"extensions":{
				"KHR_materials_clearcoat":{
					"clearcoatFactor":0.699999988079071,
					"clearcoatRoughnessFactor":0.029999999329447746
				},
				"KHR_materials_specular":{
					"specularColorFactor":[
						2.371357614441398,
						2.371357614441398,
						2.371357614441398
					]
				},
				"KHR_materials_ior":{
					"ior":1.4500000476837158
				}
			},
			"name":"metalic_orange",
			"pbrMetallicRoughness":{
				"metallicFactor":0.75,
				"roughnessFactor":0.5
			}
		},
		{
			"doubleSided":true,
			"extensions":{
				"KHR_materials_specular":{
					"specularColorFactor":[
						0.948543059910952,
						0.948543059910952,
						0.948543059910952
					]
				},
				"KHR_materials_ior":{
					"ior":1.4500000476837158
				}
			},
			"name":"metalic_red",
			"pbrMetallicRoughness":{
				"metallicFactor":0,
				"roughnessFactor":0.6000000238418579
			}
		},
		{
			"doubleSided":true,
			"extensions":{
				"KHR_materials_clearcoat":{
					"clearcoatFactor":1,
					"clearcoatRoughnessFactor":0.029999999329447746
				}
			},
			"name":"metalic_grey",
			"pbrMetallicRoughness":{
				"metallicFactor":0.5,
				"roughnessFactor":0.25
			}
		},
		{
			"doubleSided":true,
			"extensions":{
				"KHR_materials_specular":{
					"specularColorFactor":[
						2.371357614441398,
						2.371357614441398,
						2.371357614441398
					]
				},
				"KHR_materials_ior":{
					"ior":1.4500000476837158
				}
			},
			"name":"glass",
			"pbrMetallicRoughness":{
				"metallicFactor":0.5,
				"roughnessFactor":0.20000000298023224
			}
		}
	],
	"meshes":[
		{
			"name":"Plane",
			"primitives":[
				{
					"attributes":{
						"POSITION":0,
						"NORMAL":1,
						"TEXCOORD_0":2
					},
					"indices":3,
					"material":0
				},
				{
					"attributes":{
						"POSITION":4,
						"NORMAL":5,
						"TEXCOORD_0":6
					},
					"indices":7,
					"material":1
				},
				{
					"attributes":{
						"POSITION":8,
						"NORMAL":9,
						"TEXCOORD_0":10
					},
					"indices":11,
					"material":2
				},
				{
					"attributes":{
						"POSITION":12,
						"NORMAL":13,
						"TEXCOORD_0":14
					},
					"indices":15,
					"material":3
				}
			]
		},
		{
			"name":"Circle",
			"primitives":[
				{
					"attributes":{
						"POSITION":16,
						"NORMAL":17,
						"TEXCOORD_0":18
					},
					"indices":19,
					"material":1
				}
			]
		},
		{
			"name":"Plane.001",
			"primitives":[
				{
					"attributes":{
						"POSITION":20,
						"NORMAL":21,
						"TEXCOORD_0":22
					},
					"indices":23,
					"material":1
				}
			]
		},
		{
			"name":"Plane.002",
			"primitives":[
				{
					"attributes":{
						"POSITION":24,
						"NORMAL":25,
						"TEXCOORD_0":26
					},
					"indices":27,
					"material":1
				}
			]
		},
		{
			"name":"Sphere",
			"primitives":[
				{
					"attributes":{
						"POSITION":28,
						"NORMAL":29,
						"TEXCOORD_0":30
					},
					"indices":31,
					"material":4
				}
			]
		},
		{
			"name":"curve1",
			"primitives":[
				{
					"attributes":{
						"POSITION":32,
						"NORMAL":33,
						"TEXCOORD_0":34
					},
					"indices":35,
					"material":3
				}
			]
		},
		{
			"name":"Cylinder",
			"primitives":[
				{
					"attributes":{
						"POSITION":36,
						"NORMAL":37,
						"TEXCOORD_0":38
					},
					"indices":39,
					"material":3
				}
			]
		},
		{
			"name":"Plane.006",
			"primitives":[
				{
					"attributes":{
						"POSITION":40,
						"NORMAL":41,
						"TEXCOORD_0":42
					},
					"indices":43,
					"material":3
				}
			]
		},
		{
			"name":"Cube",
			"primitives":[
				{
					"attributes":{
						"POSITION":44,
						"NORMAL":45,
						"TEXCOORD_0":46
					},
					"indices":47,
					"material":3
				}
			]
		}
	],
	"accessors":[
		{
			"bufferView":0,
			"componentType":5126,
			"count":1210,
			"max":[
				0.6472212672233582,
				0.655971109867096,
				1.1965465545654297
			],
			"min":[
				-0.6472211480140686,
				-0.6472213268280029,
				-1.1193459033966064
			],
			"type":"VEC3"
		},
		{
			"bufferView":1,
			"componentType":5126,
			"count":1210,
			"type":"VEC3"
		},
		{
			"bufferView":2,
			"componentType":5126,
			"count":1210,
			"type":"VEC2"
		},
		{
			"bufferView":3,
			"componentType":5123,
			"count":5712,
			"type":"SCALAR"
		},
		{
			"bufferView":4,
			"componentType":5126,
			"count":265,
			"max":[
				0.39950111508369446,
				0.39953556656837463,
				-1.1193046569824219
			],
			"min":[
				-0.39950114488601685,
				-0.3995002210140228,
				-1.726232647895813
			],
			"type":"VEC3"
		},
		{
			"bufferView":5,
			"componentType":5126,
			"count":265,
			"type":"VEC3"
		},
		{
			"bufferView":6,
			"componentType":5126,
			"count":265,
			"type":"VEC2"
		},
		{
			"bufferView":7,
			"componentType":5123,
			"count":1152,
			"type":"SCALAR"
		},
		{
			"bufferView":8,
			"componentType":5126,
			"count":153,
			"max":[
				0.5856981873512268,
				0.715396523475647,
				1.3389606475830078
			],
			"min":[
				-0.5856980681419373,
				-0.5856980681419373,
				-0.8086028695106506
			],
			"type":"VEC3"
		},
		{
			"bufferView":9,
			"componentType":5126,
			"count":153,
			"type":"VEC3"
		},
		{
			"bufferView":10,
			"componentType":5126,
			"count":153,
			"type":"VEC2"
		},
		{
			"bufferView":11,
			"componentType":5123,
			"count":480,
			"type":"SCALAR"
		},
		{
			"bufferView":12,
			"componentType":5126,
			"count":390,
			"max":[
				0.45784899592399597,
				0.715396523475647,
				1.3839048147201538
			],
			"min":[
				-0.4578489363193512,
				-0.4584459066390991,
				-0.8313331007957458
			],
			"type":"VEC3"
		},
		{
			"bufferView":13,
			"componentType":5126,
			"count":390,
			"type":"VEC3"
		},
		{
			"bufferView":14,
			"componentType":5126,
			"count":390,
			"type":"VEC2"
		},
		{
			"bufferView":15,
			"componentType":5123,
			"count":1458,
			"type":"SCALAR"
		},
		{
			"bufferView":16,
			"componentType":5126,
			"count":73,
			"max":[
				0.20748528838157654,
				0.7454625964164734,
				0.16305267810821533
			],
			"min":[
				-0.36056193709373474,
				-7.710109217740069e-10,
				-0.16305258870124817
			],
			"type":"VEC3"
		},
		{
			"bufferView":17,
			"componentType":5126,
			"count":73,
			"type":"VEC3"
		},
		{
			"bufferView":18,
			"componentType":5126,
			"count":73,
			"type":"VEC2"
		},
		{
			"bufferView":19,
			"componentType":5123,
			"count":396,
			"type":"SCALAR"
		},
		{
			"bufferView":20,
			"componentType":5126,
			"count":229,
			"max":[
				1.283990740776062,
				0.18205855786800385,
				0.8566606640815735
			],
			"min":[
				0.2665630280971527,
				-0.18205854296684265,
				-1.1297671794891357
			],
			"type":"VEC3"
		},
		{
			"bufferView":21,
			"componentType":5126,
			"count":229,
			"type":"VEC3"
		},
		{
			"bufferView":22,
			"componentType":5126,
			"count":229,
			"type":"VEC2"
		},
		{
			"bufferView":23,
			"componentType":5123,
			"count":1308,
			"type":"SCALAR"
		},
		{
			"bufferView":24,
			"componentType":5126,
			"count":65,
			"max":[
				1.041876196861267,
				0.16032154858112335,
				0.5133901238441467
			],
			"min":[
				-0.4866757094860077,
				-0.16032174229621887,
				0.10865074396133423
			],
			"type":"VEC3"
		},
		{
			"bufferView":25,
			"componentType":5126,
			"count":65,
			"type":"VEC3"
		},
		{
			"bufferView":26,
			"componentType":5126,
			"count":65,
			"type":"VEC2"
		},
		{
			"bufferView":27,
			"componentType":5123,
			"count":360,
			"type":"SCALAR"
		},
		{
			"bufferView":28,
			"componentType":5126,
			"count":75,
			"max":[
				0.35484910011291504,
				0.3939538300037384,
				0.3598964214324951
			],
			"min":[
				-0.3548489809036255,
				-0.3157442808151245,
				0.0777398943901062
			],
			"type":"VEC3"
		},
		{
			"bufferView":29,
			"componentType":5126,
			"count":75,
			"type":"VEC3"
		},
		{
			"bufferView":30,
			"componentType":5126,
			"count":75,
			"type":"VEC2"
		},
		{
			"bufferView":31,
			"componentType":5123,
			"count":324,
			"type":"SCALAR"
		},
		{
			"bufferView":32,
			"componentType":5126,
			"count":1152,
			"max":[
				1.2873398065567017,
				0.17602048814296722,
				0.028890343382954597
			],
			"min":[
				-1.6205644607543945,
				-0.1760202944278717,
				-0.2598206102848053
			],
			"type":"VEC3"
		},
		{
			"bufferView":33,
			"componentType":5126,
			"count":1152,
			"type":"VEC3"
		},
		{
			"bufferView":34,
			"componentType":5126,
			"count":1152,
			"type":"VEC2"
		},
		{
			"bufferView":35,
			"componentType":5123,
			"count":1728,
			"type":"SCALAR"
		},
		{
			"bufferView":36,
			"componentType":5126,
			"count":75,
			"max":[
				0.06923303008079529,
				0.46089407801628113,
				0.07279592007398605
			],
			"min":[
				-0.06923303008079529,
				-0.21500003337860107,
				-0.07279592007398605
			],
			"type":"VEC3"
		},
		{
			"bufferView":37,
			"componentType":5126,
			"count":75,
			"type":"VEC3"
		},
		{
			"bufferView":38,
			"componentType":5126,
			"count":75,
			"type":"VEC2"
		},
		{
			"bufferView":39,
			"componentType":5123,
			"count":294,
			"type":"SCALAR"
		},
		{
			"bufferView":40,
			"componentType":5126,
			"count":50,
			"max":[
				1.0056966543197632,
				0.10926827788352966,
				0.8647140264511108
			],
			"min":[
				0.2577211558818817,
				-0.10926812887191772,
				-0.03227236494421959
			],
			"type":"VEC3"
		},
		{
			"bufferView":41,
			"componentType":5126,
			"count":50,
			"type":"VEC3"
		},
		{
			"bufferView":42,
			"componentType":5126,
			"count":50,
			"type":"VEC2"
		},
		{
			"bufferView":43,
			"componentType":5123,
			"count":288,
			"type":"SCALAR"
		},
		{
			"bufferView":44,
			"componentType":5126,
			"count":288,
			"max":[
				0.34739312529563904,
				0.33273524045944214,
				0.06918760389089584
			],
			"min":[
				-0.3485913574695587,
				-0.36104243993759155,
				-0.06768254935741425
			],
			"type":"VEC3"
		},
		{
			"bufferView":45,
			"componentType":5126,
			"count":288,
			"type":"VEC3"
		},
		{
			"bufferView":46,
			"componentType":5126,
			"count":288,
			"type":"VEC2"
		},
		{
			"bufferView":47,
			"componentType":5123,
			"count":960,
			"type":"SCALAR"
		}
	],
	"bufferViews":[
		{
			"buffer":0,
			"byteLength":14520,
			"byteOffset":0,
			"target":34962
		},
		{
			"buffer":0,
			"byteLength":14520,
			"byteOffset":14520,
			"target":34962
		},
		{
			"buffer":0,
			"byteLength":9680,
			"byteOffset":29040,
			"target":34962
		},
		{
			"buffer":0,
			"byteLength":11424,
			"byteOffset":38720,
			"target":34963
		},
		{
			"buffer":0,
			"byteLength":3180,
			"byteOffset":50144,
			"target":34962
		},
		{
			"buffer":0,
			"byteLength":3180,
			"byteOffset":53324,
			"target":34962
		},
		{
			"buffer":0,
			"byteLength":2120,
			"byteOffset":56504,
			"target":34962
		},
		{
			"buffer":0,
			"byteLength":2304,
			"byteOffset":58624,
			"target":34963
		},
		{
			"buffer":0,
			"byteLength":1836,
			"byteOffset":60928,
			"target":34962
		},
		{
			"buffer":0,
			"byteLength":1836,
			"byteOffset":62764,
			"target":34962
		},
		{
			"buffer":0,
			"byteLength":1224,
			"byteOffset":64600,
			"target":34962
		},
		{
			"buffer":0,
			"byteLength":960,
			"byteOffset":65824,
			"target":34963
		},
		{
			"buffer":0,
			"byteLength":4680,
			"byteOffset":66784,
			"target":34962
		},
		{
			"buffer":0,
			"byteLength":4680,
			"byteOffset":71464,
			"target":34962
		},
		{
			"buffer":0,
			"byteLength":3120,
			"byteOffset":76144,
			"target":34962
		},
		{
			"buffer":0,
			"byteLength":2916,
			"byteOffset":79264,
			"target":34963
		},
		{
			"buffer":0,
			"byteLength":876,
			"byteOffset":82180,
			"target":34962
		},
		{
			"buffer":0,
			"byteLength":876,
			"byteOffset":83056,
			"target":34962
		},
		{
			"buffer":0,
			"byteLength":584,
			"byteOffset":83932,
			"target":34962
		},
		{
			"buffer":0,
			"byteLength":792,
			"byteOffset":84516,
			"target":34963
		},
		{
			"buffer":0,
			"byteLength":2748,
			"byteOffset":85308,
			"target":34962
		},
		{
			"buffer":0,
			"byteLength":2748,
			"byteOffset":88056,
			"target":34962
		},
		{
			"buffer":0,
			"byteLength":1832,
			"byteOffset":90804,
			"target":34962
		},
		{
			"buffer":0,
			"byteLength":2616,
			"byteOffset":92636,
			"target":34963
		},
		{
			"buffer":0,
			"byteLength":780,
			"byteOffset":95252,
			"target":34962
		},
		{
			"buffer":0,
			"byteLength":780,
			"byteOffset":96032,
			"target":34962
		},
		{
			"buffer":0,
			"byteLength":520,
			"byteOffset":96812,
			"target":34962
		},
		{
			"buffer":0,
			"byteLength":720,
			"byteOffset":97332,
			"target":34963
		},
		{
			"buffer":0,
			"byteLength":900,
			"byteOffset":98052,
			"target":34962
		},
		{
			"buffer":0,
			"byteLength":900,
			"byteOffset":98952,
			"target":34962
		},
		{
			"buffer":0,
			"byteLength":600,
			"byteOffset":99852,
			"target":34962
		},
		{
			"buffer":0,
			"byteLength":648,
			"byteOffset":100452,
			"target":34963
		},
		{
			"buffer":0,
			"byteLength":13824,
			"byteOffset":101100,
			"target":34962
		},
		{
			"buffer":0,
			"byteLength":13824,
			"byteOffset":114924,
			"target":34962
		},
		{
			"buffer":0,
			"byteLength":9216,
			"byteOffset":128748,
			"target":34962
		},
		{
			"buffer":0,
			"byteLength":3456,
			"byteOffset":137964,
			"target":34963
		},
		{
			"buffer":0,
			"byteLength":900,
			"byteOffset":141420,
			"target":34962
		},
		{
			"buffer":0,
			"byteLength":900,
			"byteOffset":142320,
			"target":34962
		},
		{
			"buffer":0,
			"byteLength":600,
			"byteOffset":143220,
			"target":34962
		},
		{
			"buffer":0,
			"byteLength":588,
			"byteOffset":143820,
			"target":34963
		},
		{
			"buffer":0,
			"byteLength":600,
			"byteOffset":144408,
			"target":34962
		},
		{
			"buffer":0,
			"byteLength":600,
			"byteOffset":145008,
			"target":34962
		},
		{
			"buffer":0,
			"byteLength":400,
			"byteOffset":145608,
			"target":34962
		},
		{
			"buffer":0,
			"byteLength":576,
			"byteOffset":146008,
			"target":34963
		},
		{
			"buffer":0,
			"byteLength":3456,
			"byteOffset":146584,
			"target":34962
		},
		{
			"buffer":0,
			"byteLength":3456,
			"byteOffset":150040,
			"target":34962
		},
		{
			"buffer":0,
			"byteLength":2304,
			"byteOffset":153496,
			"target":34962
		},
		{
			"buffer":0,
			"byteLength":1920,
			"byteOffset":155800,
			"target":34963
		}
	],
	"buffers":[
		{
			"byteLength":157720,
			"uri":"data:application/octet-stream;base64,"
		}
	]
}
