<svg id="visual" viewBox="0 0 600 900" width="600" height="900" xmlns="http://www.w3.org/2000/svg" xmlns:xlink="http://www.w3.org/1999/xlink" version="1.1"><path d="M0 253L55 280L109 370L164 334L218 163L273 172L327 271L382 280L436 154L491 271L545 226L600 361L600 0L545 0L491 0L436 0L382 0L327 0L273 0L218 0L164 0L109 0L55 0L0 0Z" fill="#232323"></path><path d="M0 433L55 415L109 451L164 451L218 388L273 316L327 406L382 478L436 235L491 397L545 415L600 478L600 359L545 224L491 269L436 152L382 278L327 269L273 170L218 161L164 332L109 368L55 278L0 251Z" fill="#273935"></path><path d="M0 640L55 613L109 694L164 649L218 757L273 757L327 757L382 658L436 694L491 658L545 757L600 685L600 476L545 413L491 395L436 233L382 476L327 404L273 314L218 386L164 449L109 449L55 413L0 431Z" fill="#265149"></path><path d="M0 766L55 748L109 793L164 829L218 847L273 829L327 847L382 793L436 838L491 784L545 838L600 811L600 683L545 755L491 656L436 692L382 656L327 755L273 755L218 755L164 647L109 692L55 611L0 638Z" fill="#1f6a5e"></path><path d="M0 901L55 901L109 901L164 901L218 901L273 901L327 901L382 901L436 901L491 901L545 901L600 901L600 809L545 836L491 782L436 836L382 791L327 845L273 827L218 845L164 827L109 791L55 746L0 764Z" fill="#038373"></path></svg>