<svg id="visual" viewBox="0 0 8000 300" width="8000" height="300" xmlns="http://www.w3.org/2000/svg" xmlns:xlink="http://www.w3.org/1999/xlink" version="1.1"><path d="M0 236L60.7 238.3C121.3 240.7 242.7 245.3 363.8 242.2C485 239 606 228 727.2 225.8C848.3 223.7 969.7 230.3 1091 237.7C1212.3 245 1333.7 253 1454.8 250.5C1576 248 1697 235 1818.2 232.7C1939.3 230.3 2060.7 238.7 2181.8 240.3C2303 242 2424 237 2545.2 232.2C2666.3 227.3 2787.7 222.7 2909 226C3030.3 229.3 3151.7 240.7 3272.8 244C3394 247.3 3515 242.7 3636.2 242.5C3757.3 242.3 3878.7 246.7 4000 244.8C4121.3 243 4242.7 235 4363.8 236.2C4485 237.3 4606 247.7 4727.2 250.5C4848.3 253.3 4969.7 248.7 5091 244.8C5212.3 241 5333.7 238 5454.8 234.7C5576 231.3 5697 227.7 5818.2 227.8C5939.3 228 6060.7 232 6181.8 231.7C6303 231.3 6424 226.7 6545.2 230C6666.3 233.3 6787.7 244.7 6909 248.3C7030.3 252 7151.7 248 7272.8 245.5C7394 243 7515 242 7636.2 244.8C7757.3 247.7 7878.7 254.3 7939.3 257.7L8000 261L8000 301L7939.3 301C7878.7 301 7757.3 301 7636.2 301C7515 301 7394 301 7272.8 301C7151.7 301 7030.3 301 6909 301C6787.7 301 6666.3 301 6545.2 301C6424 301 6303 301 6181.8 301C6060.7 301 5939.3 301 5818.2 301C5697 301 5576 301 5454.8 301C5333.7 301 5212.3 301 5091 301C4969.7 301 4848.3 301 4727.2 301C4606 301 4485 301 4363.8 301C4242.7 301 4121.3 301 4000 301C3878.7 301 3757.3 301 3636.2 301C3515 301 3394 301 3272.8 301C3151.7 301 3030.3 301 2909 301C2787.7 301 2666.3 301 2545.2 301C2424 301 2303 301 2181.8 301C2060.7 301 1939.3 301 1818.2 301C1697 301 1576 301 1454.8 301C1333.7 301 1212.3 301 1091 301C969.7 301 848.3 301 727.2 301C606 301 485 301 363.8 301C242.7 301 121.3 301 60.7 301L0 301Z" fill="#ecd957"></path><path d="M0 242L60.7 243.2C121.3 244.3 242.7 246.7 363.8 249.7C485 252.7 606 256.3 727.2 252.7C848.3 249 969.7 238 1091 239.3C1212.3 240.7 1333.7 254.3 1454.8 254.8C1576 255.3 1697 242.7 1818.2 238.5C1939.3 234.3 2060.7 238.7 2181.8 243.5C2303 248.3 2424 253.7 2545.2 256C2666.3 258.3 2787.7 257.7 2909 258C3030.3 258.3 3151.7 259.7 3272.8 255.5C3394 251.3 3515 241.7 3636.2 236.8C3757.3 232 3878.7 232 4000 232.3C4121.3 232.7 4242.7 233.3 4363.8 232.8C4485 232.3 4606 230.7 4727.2 231.7C4848.3 232.7 4969.7 236.3 5091 236C5212.3 235.7 5333.7 231.3 5454.8 233.2C5576 235 5697 243 5818.2 243.8C5939.3 244.7 6060.7 238.3 6181.8 241C6303 243.7 6424 255.3 6545.2 254.2C6666.3 253 6787.7 239 6909 237C7030.3 235 7151.7 245 7272.8 251.5C7394 258 7515 261 7636.2 258.8C7757.3 256.7 7878.7 249.3 7939.3 245.7L8000 242L8000 301L7939.3 301C7878.7 301 7757.3 301 7636.2 301C7515 301 7394 301 7272.8 301C7151.7 301 7030.3 301 6909 301C6787.7 301 6666.3 301 6545.2 301C6424 301 6303 301 6181.8 301C6060.7 301 5939.3 301 5818.2 301C5697 301 5576 301 5454.8 301C5333.7 301 5212.3 301 5091 301C4969.7 301 4848.3 301 4727.2 301C4606 301 4485 301 4363.8 301C4242.7 301 4121.3 301 4000 301C3878.7 301 3757.3 301 3636.2 301C3515 301 3394 301 3272.8 301C3151.7 301 3030.3 301 2909 301C2787.7 301 2666.3 301 2545.2 301C2424 301 2303 301 2181.8 301C2060.7 301 1939.3 301 1818.2 301C1697 301 1576 301 1454.8 301C1333.7 301 1212.3 301 1091 301C969.7 301 848.3 301 727.2 301C606 301 485 301 363.8 301C242.7 301 121.3 301 60.7 301L0 301Z" fill="#ebce54"></path><path d="M0 266L60.7 260.7C121.3 255.3 242.7 244.7 363.8 241C485 237.3 606 240.7 727.2 243C848.3 245.3 969.7 246.7 1091 250.8C1212.3 255 1333.7 262 1454.8 260.8C1576 259.7 1697 250.3 1818.2 250C1939.3 249.7 2060.7 258.3 2181.8 263C2303 267.7 2424 268.3 2545.2 268.5C2666.3 268.7 2787.7 268.3 2909 263.3C3030.3 258.3 3151.7 248.7 3272.8 243.5C3394 238.3 3515 237.7 3636.2 243.2C3757.3 248.7 3878.7 260.3 4000 265C4121.3 269.7 4242.7 267.3 4363.8 265.3C4485 263.3 4606 261.7 4727.2 259.3C4848.3 257 4969.7 254 5091 251.8C5212.3 249.7 5333.7 248.3 5454.8 245.8C5576 243.3 5697 239.7 5818.2 241.3C5939.3 243 6060.7 250 6181.8 250C6303 250 6424 243 6545.2 242.7C6666.3 242.3 6787.7 248.7 6909 250C7030.3 251.3 7151.7 247.7 7272.8 250.5C7394 253.3 7515 262.7 7636.2 266.7C7757.3 270.7 7878.7 269.3 7939.3 268.7L8000 268L8000 301L7939.3 301C7878.7 301 7757.3 301 7636.2 301C7515 301 7394 301 7272.8 301C7151.7 301 7030.3 301 6909 301C6787.7 301 6666.3 301 6545.2 301C6424 301 6303 301 6181.8 301C6060.7 301 5939.3 301 5818.2 301C5697 301 5576 301 5454.8 301C5333.7 301 5212.3 301 5091 301C4969.7 301 4848.3 301 4727.2 301C4606 301 4485 301 4363.8 301C4242.7 301 4121.3 301 4000 301C3878.7 301 3757.3 301 3636.2 301C3515 301 3394 301 3272.8 301C3151.7 301 3030.3 301 2909 301C2787.7 301 2666.3 301 2545.2 301C2424 301 2303 301 2181.8 301C2060.7 301 1939.3 301 1818.2 301C1697 301 1576 301 1454.8 301C1333.7 301 1212.3 301 1091 301C969.7 301 848.3 301 727.2 301C606 301 485 301 363.8 301C242.7 301 121.3 301 60.7 301L0 301Z" fill="#e9c253"></path><path d="M0 249L60.7 247.8C121.3 246.7 242.7 244.3 363.8 246.8C485 249.3 606 256.7 727.2 258.5C848.3 260.3 969.7 256.7 1091 257C1212.3 257.3 1333.7 261.7 1454.8 260.2C1576 258.7 1697 251.3 1818.2 248.2C1939.3 245 2060.7 246 2181.8 246.5C2303 247 2424 247 2545.2 246.7C2666.3 246.3 2787.7 245.7 2909 248.8C3030.3 252 3151.7 259 3272.8 262.5C3394 266 3515 266 3636.2 265.7C3757.3 265.3 3878.7 264.7 4000 261.8C4121.3 259 4242.7 254 4363.8 250.8C4485 247.7 4606 246.3 4727.2 247.7C4848.3 249 4969.7 253 5091 257.2C5212.3 261.3 5333.7 265.7 5454.8 263.3C5576 261 5697 252 5818.2 250.7C5939.3 249.3 6060.7 255.7 6181.8 256.5C6303 257.3 6424 252.7 6545.2 250.5C6666.3 248.3 6787.7 248.7 6909 249.2C7030.3 249.7 7151.7 250.3 7272.8 251.8C7394 253.3 7515 255.7 7636.2 258.5C7757.3 261.3 7878.7 264.7 7939.3 266.3L8000 268L8000 301L7939.3 301C7878.7 301 7757.3 301 7636.2 301C7515 301 7394 301 7272.8 301C7151.7 301 7030.3 301 6909 301C6787.7 301 6666.3 301 6545.2 301C6424 301 6303 301 6181.8 301C6060.7 301 5939.3 301 5818.2 301C5697 301 5576 301 5454.8 301C5333.7 301 5212.3 301 5091 301C4969.7 301 4848.3 301 4727.2 301C4606 301 4485 301 4363.8 301C4242.7 301 4121.3 301 4000 301C3878.7 301 3757.3 301 3636.2 301C3515 301 3394 301 3272.8 301C3151.7 301 3030.3 301 2909 301C2787.7 301 2666.3 301 2545.2 301C2424 301 2303 301 2181.8 301C2060.7 301 1939.3 301 1818.2 301C1697 301 1576 301 1454.8 301C1333.7 301 1212.3 301 1091 301C969.7 301 848.3 301 727.2 301C606 301 485 301 363.8 301C242.7 301 121.3 301 60.7 301L0 301Z" fill="#e6b852"></path><path d="M0 258L60.7 258.8C121.3 259.7 242.7 261.3 363.8 259.8C485 258.3 606 253.7 727.2 253C848.3 252.3 969.7 255.7 1091 256C1212.3 256.3 1333.7 253.7 1454.8 254.8C1576 256 1697 261 1818.2 265.7C1939.3 270.3 2060.7 274.7 2181.8 273.8C2303 273 2424 267 2545.2 262.5C2666.3 258 2787.7 255 2909 254.3C3030.3 253.7 3151.7 255.3 3272.8 258.7C3394 262 3515 267 3636.2 268.3C3757.3 269.7 3878.7 267.3 4000 268.7C4121.3 270 4242.7 275 4363.8 274.2C4485 273.3 4606 266.7 4727.2 262C4848.3 257.3 4969.7 254.7 5091 253.7C5212.3 252.7 5333.7 253.3 5454.8 253.5C5576 253.7 5697 253.3 5818.2 254.7C5939.3 256 6060.7 259 6181.8 258.8C6303 258.7 6424 255.3 6545.2 256C6666.3 256.7 6787.7 261.3 6909 262.8C7030.3 264.3 7151.7 262.7 7272.8 264.3C7394 266 7515 271 7636.2 269.8C7757.3 268.7 7878.7 261.3 7939.3 257.7L8000 254L8000 301L7939.3 301C7878.7 301 7757.3 301 7636.2 301C7515 301 7394 301 7272.8 301C7151.7 301 7030.3 301 6909 301C6787.7 301 6666.3 301 6545.2 301C6424 301 6303 301 6181.8 301C6060.7 301 5939.3 301 5818.2 301C5697 301 5576 301 5454.8 301C5333.7 301 5212.3 301 5091 301C4969.7 301 4848.3 301 4727.2 301C4606 301 4485 301 4363.8 301C4242.7 301 4121.3 301 4000 301C3878.7 301 3757.3 301 3636.2 301C3515 301 3394 301 3272.8 301C3151.7 301 3030.3 301 2909 301C2787.7 301 2666.3 301 2545.2 301C2424 301 2303 301 2181.8 301C2060.7 301 1939.3 301 1818.2 301C1697 301 1576 301 1454.8 301C1333.7 301 1212.3 301 1091 301C969.7 301 848.3 301 727.2 301C606 301 485 301 363.8 301C242.7 301 121.3 301 60.7 301L0 301Z" fill="#e2ad51"></path><path d="M0 259L60.7 262.2C121.3 265.3 242.7 271.7 363.8 272.2C485 272.7 606 267.3 727.2 267.3C848.3 267.3 969.7 272.7 1091 273.7C1212.3 274.7 1333.7 271.3 1454.8 268.3C1576 265.3 1697 262.7 1818.2 261.3C1939.3 260 2060.7 260 2181.8 259.5C2303 259 2424 258 2545.2 261C2666.3 264 2787.7 271 2909 272.3C3030.3 273.7 3151.7 269.3 3272.8 269.3C3394 269.3 3515 273.7 3636.2 275.5C3757.3 277.3 3878.7 276.7 4000 277.3C4121.3 278 4242.7 280 4363.8 279.3C4485 278.7 4606 275.3 4727.2 272.2C4848.3 269 4969.7 266 5091 263.8C5212.3 261.7 5333.7 260.3 5454.8 261.8C5576 263.3 5697 267.7 5818.2 267.7C5939.3 267.7 6060.7 263.3 6181.8 263.2C6303 263 6424 267 6545.2 267C6666.3 267 6787.7 263 6909 262.5C7030.3 262 7151.7 265 7272.8 265.2C7394 265.3 7515 262.7 7636.2 262.5C7757.3 262.3 7878.7 264.7 7939.3 265.8L8000 267L8000 301L7939.3 301C7878.7 301 7757.3 301 7636.2 301C7515 301 7394 301 7272.8 301C7151.7 301 7030.3 301 6909 301C6787.7 301 6666.3 301 6545.2 301C6424 301 6303 301 6181.8 301C6060.7 301 5939.3 301 5818.2 301C5697 301 5576 301 5454.8 301C5333.7 301 5212.3 301 5091 301C4969.7 301 4848.3 301 4727.2 301C4606 301 4485 301 4363.8 301C4242.7 301 4121.3 301 4000 301C3878.7 301 3757.3 301 3636.2 301C3515 301 3394 301 3272.8 301C3151.7 301 3030.3 301 2909 301C2787.7 301 2666.3 301 2545.2 301C2424 301 2303 301 2181.8 301C2060.7 301 1939.3 301 1818.2 301C1697 301 1576 301 1454.8 301C1333.7 301 1212.3 301 1091 301C969.7 301 848.3 301 727.2 301C606 301 485 301 363.8 301C242.7 301 121.3 301 60.7 301L0 301Z" fill="#dda351"></path><path d="M0 277L60.7 278.5C121.3 280 242.7 283 363.8 282.3C485 281.7 606 277.3 727.2 277.2C848.3 277 969.7 281 1091 282.7C1212.3 284.3 1333.7 283.7 1454.8 282.3C1576 281 1697 279 1818.2 278.8C1939.3 278.7 2060.7 280.3 2181.8 280.8C2303 281.3 2424 280.7 2545.2 279.3C2666.3 278 2787.7 276 2909 274C3030.3 272 3151.7 270 3272.8 270.2C3394 270.3 3515 272.7 3636.2 274.3C3757.3 276 3878.7 277 4000 278.3C4121.3 279.7 4242.7 281.3 4363.8 280.5C4485 279.7 4606 276.3 4727.2 277.3C4848.3 278.3 4969.7 283.7 5091 283C5212.3 282.3 5333.7 275.7 5454.8 272C5576 268.3 5697 267.7 5818.2 267.5C5939.3 267.3 6060.7 267.7 6181.8 267.5C6303 267.3 6424 266.7 6545.2 267.2C6666.3 267.7 6787.7 269.3 6909 270.7C7030.3 272 7151.7 273 7272.8 272.3C7394 271.7 7515 269.3 7636.2 268.5C7757.3 267.7 7878.7 268.3 7939.3 268.7L8000 269L8000 301L7939.3 301C7878.7 301 7757.3 301 7636.2 301C7515 301 7394 301 7272.8 301C7151.7 301 7030.3 301 6909 301C6787.7 301 6666.3 301 6545.2 301C6424 301 6303 301 6181.8 301C6060.7 301 5939.3 301 5818.2 301C5697 301 5576 301 5454.8 301C5333.7 301 5212.3 301 5091 301C4969.7 301 4848.3 301 4727.2 301C4606 301 4485 301 4363.8 301C4242.7 301 4121.3 301 4000 301C3878.7 301 3757.3 301 3636.2 301C3515 301 3394 301 3272.8 301C3151.7 301 3030.3 301 2909 301C2787.7 301 2666.3 301 2545.2 301C2424 301 2303 301 2181.8 301C2060.7 301 1939.3 301 1818.2 301C1697 301 1576 301 1454.8 301C1333.7 301 1212.3 301 1091 301C969.7 301 848.3 301 727.2 301C606 301 485 301 363.8 301C242.7 301 121.3 301 60.7 301L0 301Z" fill="#d89951"></path><path d="M0 290L60.7 288.2C121.3 286.3 242.7 282.7 363.8 280.2C485 277.7 606 276.3 727.2 275.8C848.3 275.3 969.7 275.7 1091 278.2C1212.3 280.7 1333.7 285.3 1454.8 285.3C1576 285.3 1697 280.7 1818.2 280.3C1939.3 280 2060.7 284 2181.8 283.8C2303 283.7 2424 279.3 2545.2 280.2C2666.3 281 2787.7 287 2909 288.3C3030.3 289.7 3151.7 286.3 3272.8 286.2C3394 286 3515 289 3636.2 289.8C3757.3 290.7 3878.7 289.3 4000 286.8C4121.3 284.3 4242.7 280.7 4363.8 281.5C4485 282.3 4606 287.7 4727.2 289.8C4848.3 292 4969.7 291 5091 288.7C5212.3 286.3 5333.7 282.7 5454.8 280.8C5576 279 5697 279 5818.2 280.5C5939.3 282 6060.7 285 6181.8 285.2C6303 285.3 6424 282.7 6545.2 283C6666.3 283.3 6787.7 286.7 6909 287.3C7030.3 288 7151.7 286 7272.8 285.8C7394 285.7 7515 287.3 7636.2 286.5C7757.3 285.7 7878.7 282.3 7939.3 280.7L8000 279L8000 301L7939.3 301C7878.7 301 7757.3 301 7636.2 301C7515 301 7394 301 7272.8 301C7151.7 301 7030.3 301 6909 301C6787.7 301 6666.3 301 6545.2 301C6424 301 6303 301 6181.8 301C6060.7 301 5939.3 301 5818.2 301C5697 301 5576 301 5454.8 301C5333.7 301 5212.3 301 5091 301C4969.7 301 4848.3 301 4727.2 301C4606 301 4485 301 4363.8 301C4242.7 301 4121.3 301 4000 301C3878.7 301 3757.3 301 3636.2 301C3515 301 3394 301 3272.8 301C3151.7 301 3030.3 301 2909 301C2787.7 301 2666.3 301 2545.2 301C2424 301 2303 301 2181.8 301C2060.7 301 1939.3 301 1818.2 301C1697 301 1576 301 1454.8 301C1333.7 301 1212.3 301 1091 301C969.7 301 848.3 301 727.2 301C606 301 485 301 363.8 301C242.7 301 121.3 301 60.7 301L0 301Z" fill="#d28f51"></path><path d="M0 290L60.7 290C121.3 290 242.7 290 363.8 289C485 288 606 286 727.2 285.8C848.3 285.7 969.7 287.3 1091 289C1212.3 290.7 1333.7 292.3 1454.8 292C1576 291.7 1697 289.3 1818.2 289.2C1939.3 289 2060.7 291 2181.8 290.8C2303 290.7 2424 288.3 2545.2 287C2666.3 285.7 2787.7 285.3 2909 286.5C3030.3 287.7 3151.7 290.3 3272.8 291C3394 291.7 3515 290.3 3636.2 289.5C3757.3 288.7 3878.7 288.3 4000 289.2C4121.3 290 4242.7 292 4363.8 291.8C4485 291.7 4606 289.3 4727.2 287.5C4848.3 285.7 4969.7 284.3 5091 283.8C5212.3 283.3 5333.7 283.7 5454.8 285.3C5576 287 5697 290 5818.2 291.2C5939.3 292.3 6060.7 291.7 6181.8 290.8C6303 290 6424 289 6545.2 288.8C6666.3 288.7 6787.7 289.3 6909 288.7C7030.3 288 7151.7 286 7272.8 285.5C7394 285 7515 286 7636.2 287C7757.3 288 7878.7 289 7939.3 289.5L8000 290L8000 301L7939.3 301C7878.7 301 7757.3 301 7636.2 301C7515 301 7394 301 7272.8 301C7151.7 301 7030.3 301 6909 301C6787.7 301 6666.3 301 6545.2 301C6424 301 6303 301 6181.8 301C6060.7 301 5939.3 301 5818.2 301C5697 301 5576 301 5454.8 301C5333.7 301 5212.3 301 5091 301C4969.7 301 4848.3 301 4727.2 301C4606 301 4485 301 4363.8 301C4242.7 301 4121.3 301 4000 301C3878.7 301 3757.3 301 3636.2 301C3515 301 3394 301 3272.8 301C3151.7 301 3030.3 301 2909 301C2787.7 301 2666.3 301 2545.2 301C2424 301 2303 301 2181.8 301C2060.7 301 1939.3 301 1818.2 301C1697 301 1576 301 1454.8 301C1333.7 301 1212.3 301 1091 301C969.7 301 848.3 301 727.2 301C606 301 485 301 363.8 301C242.7 301 121.3 301 60.7 301L0 301Z" fill="#cb8651"></path></svg>